<mxfile host="65bd71144e">
    <diagram id="97gA0pF0Zc46DC7x7eBv" name="Page-1">
        <mxGraphModel dx="1843" dy="1072" grid="1" gridSize="10" guides="1" tooltips="1" connect="1" arrows="1" fold="1" page="1" pageScale="1" pageWidth="850" pageHeight="1100" math="0" shadow="0">
            <root>
                <mxCell id="0"/>
                <mxCell id="1" parent="0"/>
                <mxCell id="65" value="" style="whiteSpace=wrap;html=1;fontSize=10;" parent="1" vertex="1">
                    <mxGeometry x="-180" y="190" width="920" height="720" as="geometry"/>
                </mxCell>
                <mxCell id="120" value="" style="whiteSpace=wrap;html=1;dashed=1;dashPattern=8 8;fontSize=10;" vertex="1" parent="1">
                    <mxGeometry x="-170" y="850" width="900" height="50" as="geometry"/>
                </mxCell>
                <mxCell id="119" value="" style="whiteSpace=wrap;html=1;dashed=1;dashPattern=8 8;fontSize=10;" vertex="1" parent="1">
                    <mxGeometry x="-170" y="292" width="900" height="548" as="geometry"/>
                </mxCell>
                <mxCell id="118" value="" style="whiteSpace=wrap;html=1;dashed=1;dashPattern=8 8;fontSize=10;" parent="1" vertex="1">
                    <mxGeometry x="470" y="310" width="240" height="516" as="geometry"/>
                </mxCell>
                <mxCell id="117" value="" style="whiteSpace=wrap;html=1;dashed=1;dashPattern=8 8;fontSize=10;" parent="1" vertex="1">
                    <mxGeometry x="-150" y="310" width="600" height="516" as="geometry"/>
                </mxCell>
                <mxCell id="114" value="" style="whiteSpace=wrap;html=1;dashed=1;dashPattern=8 8;fontSize=10;" parent="1" vertex="1">
                    <mxGeometry x="-150" y="200" width="860" height="80" as="geometry"/>
                </mxCell>
                <mxCell id="113" value="" style="whiteSpace=wrap;html=1;fontSize=10;" parent="1" vertex="1">
                    <mxGeometry x="-60" y="340" width="440" height="80" as="geometry"/>
                </mxCell>
                <mxCell id="66" value="Logo" style="whiteSpace=wrap;html=1;fontSize=10;" parent="1" vertex="1">
                    <mxGeometry x="220" y="203" width="120" height="30" as="geometry"/>
                </mxCell>
                <mxCell id="67" value="Park Name" style="whiteSpace=wrap;html=1;fontSize=10;" parent="1" vertex="1">
                    <mxGeometry x="220" y="245" width="120" height="30" as="geometry"/>
                </mxCell>
                <mxCell id="68" value="" style="whiteSpace=wrap;html=1;fontSize=10;" parent="1" vertex="1">
                    <mxGeometry x="-70" y="430" width="460" height="370" as="geometry"/>
                </mxCell>
                <mxCell id="99" value="" style="whiteSpace=wrap;html=1;fontSize=10;dashed=1;dashPattern=8 8;" parent="1" vertex="1">
                    <mxGeometry x="-50" y="530" width="430" height="200" as="geometry"/>
                </mxCell>
                <mxCell id="70" value="Phone, Email, etc" style="whiteSpace=wrap;html=1;fontSize=10;" parent="1" vertex="1">
                    <mxGeometry x="180" y="860" width="200" height="30" as="geometry"/>
                </mxCell>
                <mxCell id="71" value="Guests" style="whiteSpace=wrap;html=1;fontSize=10;" parent="1" vertex="1">
                    <mxGeometry x="560" y="334" width="70" height="40" as="geometry"/>
                </mxCell>
                <mxCell id="121" value="" style="edgeStyle=none;html=1;" edge="1" parent="1" source="72" target="117">
                    <mxGeometry relative="1" as="geometry"/>
                </mxCell>
                <mxCell id="72" value="Guests" style="whiteSpace=wrap;html=1;fontSize=10;" parent="1" vertex="1">
                    <mxGeometry x="560" y="387" width="70" height="413" as="geometry"/>
                </mxCell>
                <mxCell id="75" value="Areas" style="whiteSpace=wrap;html=1;fontSize=10;" parent="1" vertex="1">
                    <mxGeometry x="105" y="450" width="120" height="30" as="geometry"/>
                </mxCell>
                <mxCell id="79" value="" style="whiteSpace=wrap;html=1;fontSize=10;" parent="1" vertex="1">
                    <mxGeometry x="-40" y="540" width="110" height="70" as="geometry"/>
                </mxCell>
                <mxCell id="82" value="title" style="whiteSpace=wrap;html=1;fontSize=10;" parent="1" vertex="1">
                    <mxGeometry x="-20" y="550" width="70" height="20" as="geometry"/>
                </mxCell>
                <mxCell id="83" value="service" style="whiteSpace=wrap;html=1;fontSize=10;" parent="1" vertex="1">
                    <mxGeometry x="-20" y="580" width="70" height="20" as="geometry"/>
                </mxCell>
                <mxCell id="84" value="" style="whiteSpace=wrap;html=1;fontSize=10;" parent="1" vertex="1">
                    <mxGeometry x="115" y="540" width="110" height="70" as="geometry"/>
                </mxCell>
                <mxCell id="85" value="title" style="whiteSpace=wrap;html=1;fontSize=10;" parent="1" vertex="1">
                    <mxGeometry x="135" y="550" width="70" height="20" as="geometry"/>
                </mxCell>
                <mxCell id="86" value="service" style="whiteSpace=wrap;html=1;fontSize=10;" parent="1" vertex="1">
                    <mxGeometry x="135" y="580" width="70" height="20" as="geometry"/>
                </mxCell>
                <mxCell id="87" value="" style="whiteSpace=wrap;html=1;fontSize=10;" parent="1" vertex="1">
                    <mxGeometry x="260" y="540" width="110" height="70" as="geometry"/>
                </mxCell>
                <mxCell id="88" value="title" style="whiteSpace=wrap;html=1;fontSize=10;" parent="1" vertex="1">
                    <mxGeometry x="280" y="550" width="70" height="20" as="geometry"/>
                </mxCell>
                <mxCell id="89" value="service" style="whiteSpace=wrap;html=1;fontSize=10;" parent="1" vertex="1">
                    <mxGeometry x="280" y="580" width="70" height="20" as="geometry"/>
                </mxCell>
                <mxCell id="90" value="" style="whiteSpace=wrap;html=1;fontSize=10;" parent="1" vertex="1">
                    <mxGeometry x="-40" y="650" width="110" height="70" as="geometry"/>
                </mxCell>
                <mxCell id="91" value="title" style="whiteSpace=wrap;html=1;fontSize=10;" parent="1" vertex="1">
                    <mxGeometry x="-20" y="660" width="70" height="20" as="geometry"/>
                </mxCell>
                <mxCell id="92" value="service" style="whiteSpace=wrap;html=1;fontSize=10;" parent="1" vertex="1">
                    <mxGeometry x="-20" y="690" width="70" height="20" as="geometry"/>
                </mxCell>
                <mxCell id="93" value="" style="whiteSpace=wrap;html=1;fontSize=10;" parent="1" vertex="1">
                    <mxGeometry x="115" y="650" width="110" height="70" as="geometry"/>
                </mxCell>
                <mxCell id="94" value="title" style="whiteSpace=wrap;html=1;fontSize=10;" parent="1" vertex="1">
                    <mxGeometry x="135" y="660" width="70" height="20" as="geometry"/>
                </mxCell>
                <mxCell id="95" value="service" style="whiteSpace=wrap;html=1;fontSize=10;" parent="1" vertex="1">
                    <mxGeometry x="135" y="690" width="70" height="20" as="geometry"/>
                </mxCell>
                <mxCell id="96" value="" style="whiteSpace=wrap;html=1;fontSize=10;" parent="1" vertex="1">
                    <mxGeometry x="260" y="650" width="110" height="70" as="geometry"/>
                </mxCell>
                <mxCell id="97" value="title" style="whiteSpace=wrap;html=1;fontSize=10;" parent="1" vertex="1">
                    <mxGeometry x="280" y="660" width="70" height="20" as="geometry"/>
                </mxCell>
                <mxCell id="98" value="service" style="whiteSpace=wrap;html=1;fontSize=10;" parent="1" vertex="1">
                    <mxGeometry x="280" y="690" width="70" height="20" as="geometry"/>
                </mxCell>
                <mxCell id="100" value="Services" style="whiteSpace=wrap;html=1;fontSize=10;" parent="1" vertex="1">
                    <mxGeometry x="110" y="344" width="110" height="20" as="geometry"/>
                </mxCell>
                <mxCell id="101" value="" style="whiteSpace=wrap;html=1;fontSize=10;dashed=1;dashPattern=8 8;" parent="1" vertex="1">
                    <mxGeometry x="25" y="370" width="280" height="44" as="geometry"/>
                </mxCell>
                <mxCell id="102" value="service" style="whiteSpace=wrap;html=1;fontSize=10;" parent="1" vertex="1">
                    <mxGeometry x="39" y="377" width="45" height="10" as="geometry"/>
                </mxCell>
                <mxCell id="103" value="service" style="whiteSpace=wrap;html=1;fontSize=10;" parent="1" vertex="1">
                    <mxGeometry x="39" y="400" width="45" height="10" as="geometry"/>
                </mxCell>
                <mxCell id="104" value="service" style="whiteSpace=wrap;html=1;fontSize=10;" parent="1" vertex="1">
                    <mxGeometry x="90" y="377" width="45" height="10" as="geometry"/>
                </mxCell>
                <mxCell id="105" value="service" style="whiteSpace=wrap;html=1;fontSize=10;" parent="1" vertex="1">
                    <mxGeometry x="141.5" y="377" width="45" height="10" as="geometry"/>
                </mxCell>
                <mxCell id="106" value="service" style="whiteSpace=wrap;html=1;fontSize=10;" parent="1" vertex="1">
                    <mxGeometry x="193" y="377" width="45" height="10" as="geometry"/>
                </mxCell>
                <mxCell id="107" value="service" style="whiteSpace=wrap;html=1;fontSize=10;" parent="1" vertex="1">
                    <mxGeometry x="245" y="377" width="45" height="10" as="geometry"/>
                </mxCell>
                <mxCell id="108" value="service" style="whiteSpace=wrap;html=1;fontSize=10;" parent="1" vertex="1">
                    <mxGeometry x="90" y="400" width="45" height="10" as="geometry"/>
                </mxCell>
                <mxCell id="109" value="service" style="whiteSpace=wrap;html=1;fontSize=10;" parent="1" vertex="1">
                    <mxGeometry x="141.5" y="400" width="45" height="10" as="geometry"/>
                </mxCell>
                <mxCell id="110" value="service" style="whiteSpace=wrap;html=1;fontSize=10;" parent="1" vertex="1">
                    <mxGeometry x="193" y="400" width="45" height="10" as="geometry"/>
                </mxCell>
                <mxCell id="111" value="service" style="whiteSpace=wrap;html=1;fontSize=10;" parent="1" vertex="1">
                    <mxGeometry x="244" y="400" width="45" height="10" as="geometry"/>
                </mxCell>
            </root>
        </mxGraphModel>
    </diagram>
</mxfile>